<svg width="16" height="17" viewBox="0 0 16 17" fill="none" xmlns="http://www.w3.org/2000/svg">
<g id="ChevronDown">
<path id="Vector" fill-rule="evenodd" clip-rule="evenodd" d="M11.9999 5.50019C11.7199 5.50019 11.4699 5.61019 11.2899 5.79019L7.99994 9.09019L4.70994 5.79019C4.6167 5.69695 4.50601 5.62299 4.38419 5.57253C4.26237 5.52207 4.1318 5.49609 3.99994 5.49609C3.73364 5.49609 3.47825 5.60188 3.28994 5.79019C3.1967 5.88342 3.12274 5.99411 3.07228 6.11594C3.02182 6.23776 2.99585 6.36833 2.99585 6.50019C2.99585 6.76649 3.10164 7.02188 3.28994 7.21019L7.28994 11.2102C7.46994 11.3902 7.71994 11.5002 7.99994 11.5002C8.27994 11.5002 8.52994 11.3902 8.70994 11.2102L12.7099 7.21019C12.8495 7.06975 12.9444 6.89116 12.9826 6.6969C13.0208 6.50265 13.0007 6.30142 12.9248 6.11857C12.8489 5.93572 12.7206 5.77943 12.556 5.66939C12.3914 5.55934 12.1979 5.50047 11.9999 5.50019Z" fill="#003893"/>
</g>
</svg>
