<svg width="16" height="17" viewBox="0 0 16 17" fill="none" xmlns="http://www.w3.org/2000/svg">
<g id="ChevronUp">
<path id="Vector" fill-rule="evenodd" clip-rule="evenodd" d="M12.7099 9.79L8.70994 5.79C8.52994 5.61 8.27994 5.5 7.99994 5.5C7.71994 5.5 7.46994 5.61 7.28994 5.79L3.28994 9.79C3.10164 9.9783 2.99585 10.2337 2.99585 10.5C2.99585 10.7663 3.10164 11.0217 3.28994 11.21C3.47825 11.3983 3.73364 11.5041 3.99994 11.5041C4.26624 11.5041 4.52164 11.3983 4.70994 11.21L7.99994 7.91L11.2899 11.2C11.4699 11.39 11.7199 11.5 11.9999 11.5C12.1979 11.4997 12.3914 11.4408 12.556 11.3308C12.7206 11.2208 12.8489 11.0645 12.9248 10.8816C13.0007 10.6988 13.0208 10.4975 12.9826 10.3033C12.9444 10.109 12.8495 9.93043 12.7099 9.79Z" fill="#003893"/>
</g>
</svg>
