<svg width="16" height="17" viewBox="0 0 16 17" fill="none" xmlns="http://www.w3.org/2000/svg">
<g id="Code">
<path id="Vector" fill-rule="evenodd" clip-rule="evenodd" d="M15.71 7.79L12.71 4.79C12.5217 4.6017 12.2663 4.49591 12 4.49591C11.7337 4.49591 11.4783 4.6017 11.29 4.79C11.1017 4.9783 10.9959 5.2337 10.9959 5.5C10.9959 5.7663 11.1017 6.0217 11.29 6.21L13.59 8.5L11.3 10.79C11.11 10.97 11 11.22 11 11.5C11.0003 11.698 11.0592 11.8915 11.1692 12.056C11.2792 12.2206 11.4355 12.349 11.6184 12.4249C11.8012 12.5008 12.0025 12.5209 12.1967 12.4827C12.391 12.4444 12.5696 12.3496 12.71 12.21L15.71 9.21C15.89 9.03 16 8.78 16 8.5C16 8.22 15.89 7.97 15.71 7.79ZM5 5.5C4.99971 5.30202 4.94084 5.10855 4.8308 4.94396C4.72076 4.77938 4.56447 4.65104 4.38162 4.57512C4.19877 4.4992 3.99754 4.47909 3.80328 4.51733C3.60903 4.55557 3.43043 4.65044 3.29 4.79L0.29 7.79C0.11 7.97 0 8.22 0 8.5C0 8.78 0.11 9.03 0.29 9.21L3.29 12.21C3.4783 12.3983 3.7337 12.5041 4 12.5041C4.2663 12.5041 4.5217 12.3983 4.71 12.21C4.8983 12.0217 5.00409 11.7663 5.00409 11.5C5.00409 11.2337 4.8983 10.9783 4.71 10.79L2.41 8.5L4.7 6.21C4.89 6.03 5 5.78 5 5.5ZM9 2.5C8.52 2.5 8.13 2.85 8.04 3.31L6.04 13.31C6.03 13.37 6 13.43 6 13.5C6 14.05 6.45 14.5 7 14.5C7.48 14.5 7.87 14.15 7.96 13.69L9.96 3.69C9.97 3.63 10 3.57 10 3.5C10 2.95 9.55 2.5 9 2.5Z" fill="#868686"/>
</g>
</svg>
