<svg width="17" height="16" viewBox="0 0 17 16" fill="none" xmlns="http://www.w3.org/2000/svg">
<g id="Share">
<path id="Vector" fill-rule="evenodd" clip-rule="evenodd" d="M11.49 13.9902H2.48999V4.99023H7.24999L9.24999 2.99023H1.48999C0.93999 2.99023 0.48999 3.44023 0.48999 3.99023V14.9902C0.48999 15.5402 0.93999 15.9902 1.48999 15.9902H12.49C13.04 15.9902 13.49 15.5402 13.49 14.9902V7.24023L11.49 9.24023V13.9902ZM15.49 -0.00976562H10.49C9.93999 -0.00976562 9.48999 0.440234 9.48999 0.990234C9.48999 1.54023 9.93999 1.99023 10.49 1.99023H13.08L7.78999 7.28023C7.6955 7.37285 7.62033 7.48329 7.56884 7.60517C7.51734 7.72704 7.49054 7.85793 7.48999 7.99023C7.49028 8.18822 7.54915 8.38169 7.65919 8.54627C7.76924 8.71086 7.92553 8.83919 8.10837 8.91511C8.29122 8.99103 8.49245 9.01114 8.68671 8.9729C8.88096 8.93466 9.05956 8.83979 9.19999 8.70023L14.49 3.41023V6.00023C14.49 6.55023 14.94 7.00023 15.49 7.00023C16.04 7.00023 16.49 6.55023 16.49 6.00023V1.00023C16.49 0.440234 16.04 -0.00976562 15.49 -0.00976562Z" fill="#003893"/>
</g>
</svg>
