<svg width="16" height="17" viewBox="0 0 16 17" fill="none" xmlns="http://www.w3.org/2000/svg">
<g id="FolderOpen">
<path id="Vector" fill-rule="evenodd" clip-rule="evenodd" d="M2.06 7.19002C2.2 6.79002 2.56 6.50002 3 6.50002H14V5.50002C14 4.95002 13.55 4.50002 13 4.50002H6.41L4.71 2.79002C4.61666 2.69721 4.50586 2.6238 4.384 2.57402C4.26214 2.52425 4.13163 2.4991 4 2.50002H1C0.45 2.50002 0 2.95002 0 3.50002V13.34L2.05 7.19002H2.06ZM16 8.50002C16 7.95002 15.55 7.50002 15 7.50002H4C3.79046 7.50076 3.58655 7.56795 3.41763 7.69195C3.24872 7.81594 3.1235 7.99033 3.06 8.19002L1.06 14.19C1.02 14.28 1 14.39 1 14.5C1 15.05 1.45 15.5 2 15.5H13C13.44 15.5 13.81 15.21 13.94 14.81L15.94 8.81003C15.98 8.72003 16 8.61002 16 8.50002Z" fill="#47484A"/>
</g>
</svg>
