<svg width="24" height="24" viewBox="0 0 24 24" fill="none" xmlns="http://www.w3.org/2000/svg">
<g id="Key">
<path id="Vector" fill-rule="evenodd" clip-rule="evenodd" d="M16.4998 0C12.3598 0 8.99979 3.36 8.99979 7.5C8.99979 9.03 9.46479 10.44 10.2448 11.625L0.43479 21.435C0.152334 21.7175 -0.00634766 22.1005 -0.00634766 22.5C-0.00634766 22.8995 0.152334 23.2825 0.43479 23.565C0.717245 23.8475 1.10034 24.0061 1.49979 24.0061C1.89924 24.0061 2.28233 23.8475 2.56479 23.565L4.49979 21.615L6.43479 23.55C6.70479 23.835 7.07979 24 7.49979 24C7.91979 24 8.29479 23.835 8.56479 23.565L11.5648 20.565C11.8348 20.295 11.9998 19.92 11.9998 19.5C11.9998 19.08 11.8348 18.705 11.5648 18.435L9.61479 16.5L12.3598 13.755C13.5598 14.535 14.9698 15 16.4998 15C20.6398 15 23.9998 11.64 23.9998 7.5C23.9998 3.36 20.6398 0 16.4998 0ZM16.4998 12C16.1548 12 15.8248 11.955 15.5098 11.88C15.4948 11.88 15.4798 11.865 15.4648 11.865C15.1498 11.79 14.8498 11.685 14.5648 11.55C13.9634 11.2604 13.4336 10.8411 13.0135 10.3224C12.5933 9.80373 12.2932 9.19843 12.1348 8.55C12.1348 8.535 12.1198 8.52 12.1198 8.505C12.0448 8.175 11.9998 7.845 11.9998 7.5C11.9998 5.01 14.0098 3 16.4998 3C18.9898 3 20.9998 5.01 20.9998 7.5C20.9998 9.99 18.9898 12 16.4998 12Z" fill="#1C315C"/>
</g>
</svg>
