<svg width="16" height="16" viewBox="0 0 16 16" fill="none" xmlns="http://www.w3.org/2000/svg">
<path fill-rule="evenodd" clip-rule="evenodd" d="M15.99 1.1299C15.97 0.719899 15.66 0.359899 15.21 0.259899C12.26 -0.360101 9.84 0.129899 8 1.6999C6.16 0.129899 3.74 -0.360101 0.78 0.259899C0.33 0.349899 0.03 0.719899 0.01 1.1299H0V13.1299C0 13.2099 0 13.2999 0.02 13.3899C0.14 13.8999 0.67 14.2099 1.21 14.0999C3.84 13.5499 5.8 14.0599 7.22 15.6699C7.24 15.6999 7.28 15.7099 7.3 15.7299C7.32 15.7499 7.33 15.7699 7.35 15.7899C7.39 15.8199 7.44 15.8299 7.48 15.8599C7.53 15.8899 7.57 15.9099 7.62 15.9299C7.73 15.9699 7.85 15.9999 7.97 15.9999H8.01C8.13 15.9999 8.25 15.9699 8.36 15.9299C8.41 15.9099 8.45 15.8799 8.5 15.8599C8.54 15.8399 8.59 15.8199 8.63 15.7899C8.65 15.7699 8.66 15.7499 8.68 15.7299C8.71 15.7099 8.74 15.6999 8.76 15.6699C10.18 14.0699 12.15 13.5499 14.77 14.0999C15.31 14.2099 15.84 13.8899 15.96 13.3899C16 13.2999 16 13.2099 16 13.1299L15.99 1.1299ZM7 12.9899C5.6 12.1599 3.93 11.8499 2 12.0599V1.9599C4.11 1.6799 5.75 2.1599 7 3.4199V12.9899ZM14 12.0699C12.07 11.8599 10.4 12.1699 9 12.9999V3.4199C10.25 2.1599 11.89 1.6799 14 1.9599V12.0699Z" fill="#1C315C"/>
</svg>
