<svg width="24" height="24" viewBox="0 0 24 24" fill="none" xmlns="http://www.w3.org/2000/svg">
<g id="Notifications">
<path id="Vector" fill-rule="evenodd" clip-rule="evenodd" d="M12 24C13.65 24 15 22.65 15 21H9C9 22.65 10.35 24 12 24ZM21 16.5C20.175 16.5 19.5 15.825 19.5 15V9C19.5 5.355 16.905 2.325 13.47 1.65C13.47 1.59 13.5 1.56 13.5 1.5C13.5 0.675 12.825 0 12 0C11.175 0 10.5 0.675 10.5 1.5C10.5 1.56 10.53 1.59 10.53 1.65C8.82939 1.98759 7.29862 2.90486 6.19893 4.24528C5.09923 5.58571 4.49877 7.2662 4.5 9V15C4.5 15.825 3.825 16.5 3 16.5C2.175 16.5 1.5 17.175 1.5 18C1.5 18.825 2.175 19.5 3 19.5H21C21.825 19.5 22.5 18.825 22.5 18C22.5 17.175 21.825 16.5 21 16.5Z" fill="#003893"/>
</g>
</svg>
