<svg width="21" height="21" viewBox="0 0 21 21" fill="none" xmlns="http://www.w3.org/2000/svg">
<g id="Search">
<path id="Vector" fill-rule="evenodd" clip-rule="evenodd" d="M20.4376 17.7873L17.1 14.4373C18.0046 13.0365 18.4864 11.4048 18.4876 9.73731C18.4876 4.89981 14.5751 0.987305 9.73755 0.987305C4.90005 0.987305 0.987549 4.89981 0.987549 9.73731C0.987549 14.5748 4.90005 18.4873 9.73755 18.4873C11.475 18.4873 13.0876 17.9623 14.4376 17.0998L17.7876 20.4373C18.139 20.7887 18.6156 20.9861 19.1126 20.9861C19.6095 20.9861 20.0861 20.7887 20.4376 20.4373C20.789 20.0859 20.9864 19.6093 20.9864 19.1123C20.9864 18.6153 20.789 18.1387 20.4376 17.7873ZM9.73755 15.9873C6.28755 15.9873 3.48755 13.1873 3.48755 9.73731C3.48755 6.28731 6.28755 3.4873 9.73755 3.4873C13.1875 3.4873 15.9876 6.28731 15.9876 9.73731C15.9876 13.1873 13.1875 15.9873 9.73755 15.9873Z" fill="#868686"/>
</g>
</svg>
