<svg width="16" height="17" viewBox="0 0 16 17" fill="none" xmlns="http://www.w3.org/2000/svg">
<g id="SmallTick">
<path id="Vector" fill-rule="evenodd" clip-rule="evenodd" d="M11.9999 5.5C11.7199 5.5 11.4699 5.61 11.2899 5.79L6.99994 10.09L4.70994 7.79C4.52164 7.6017 4.26624 7.49591 3.99994 7.49591C3.73364 7.49591 3.47824 7.6017 3.28994 7.79C3.10164 7.9783 2.99585 8.2337 2.99585 8.5C2.99585 8.7663 3.10164 9.0217 3.28994 9.21L6.28994 12.21C6.46994 12.39 6.71994 12.5 6.99994 12.5C7.27994 12.5 7.52994 12.39 7.70994 12.21L12.7099 7.21C12.8495 7.06957 12.9444 6.89097 12.9826 6.69672C13.0208 6.50246 13.0007 6.30123 12.9248 6.11838C12.8489 5.93554 12.7206 5.77924 12.556 5.6692C12.3914 5.55916 12.1979 5.50029 11.9999 5.5Z" fill="white"/>
</g>
</svg>
