<svg width="16" height="17" viewBox="0 0 16 17" fill="none" xmlns="http://www.w3.org/2000/svg">
<g id="Tick">
<path id="Vector" fill-rule="evenodd" clip-rule="evenodd" d="M13.9999 3.5C13.7199 3.5 13.4699 3.61 13.2899 3.79L5.99994 11.09L2.70994 7.79C2.52164 7.6017 2.26624 7.49591 1.99994 7.49591C1.73364 7.49591 1.47824 7.6017 1.28994 7.79C1.10164 7.9783 0.99585 8.2337 0.99585 8.5C0.99585 8.7663 1.10164 9.0217 1.28994 9.21L5.28994 13.21C5.46994 13.39 5.71994 13.5 5.99994 13.5C6.27994 13.5 6.52994 13.39 6.70994 13.21L14.7099 5.21C14.8495 5.06957 14.9444 4.89097 14.9826 4.69672C15.0208 4.50246 15.0007 4.30123 14.9248 4.11838C14.8489 3.93554 14.7206 3.77924 14.556 3.6692C14.3914 3.55916 14.1979 3.50029 13.9999 3.5V3.5Z" fill="#868686"/>
</g>
</svg>
