<svg width="16" height="16" viewBox="0 0 16 16" fill="none" xmlns="http://www.w3.org/2000/svg">
<g id="TickCircle">
<path id="Vector" fill-rule="evenodd" clip-rule="evenodd" d="M8 16C3.58 16 0 12.42 0 8C0 3.58 3.58 0 8 0C12.42 0 16 3.58 16 8C16 12.42 12.42 16 8 16ZM12 5C11.72 5 11.47 5.11 11.29 5.29L7 9.59L4.71 7.29C4.5217 7.1017 4.2663 6.99591 4 6.99591C3.7337 6.99591 3.4783 7.1017 3.29 7.29C3.1017 7.4783 2.99591 7.7337 2.99591 8C2.99591 8.2663 3.1017 8.5217 3.29 8.71L6.29 11.71C6.47 11.89 6.72 12 7 12C7.28 12 7.53 11.89 7.71 11.71L12.71 6.71C12.8496 6.56957 12.9444 6.39097 12.9827 6.19672C13.0209 6.00246 13.0008 5.80123 12.9249 5.61838C12.849 5.43553 12.7206 5.27924 12.556 5.1692C12.3915 5.05916 12.198 5.00029 12 5Z" fill="#868686"/>
</g>
</svg>
