<svg width="16" height="16" viewBox="0 0 16 16" fill="none" xmlns="http://www.w3.org/2000/svg">
<g id="Tick">
<path id="Vector" fill-rule="evenodd" clip-rule="evenodd" d="M14 3C13.72 3 13.47 3.11 13.29 3.29L6 10.59L2.71 7.29C2.5217 7.1017 2.2663 6.99591 2 6.99591C1.7337 6.99591 1.47831 7.1017 1.29 7.29C1.1017 7.4783 0.995911 7.7337 0.995911 8C0.995911 8.2663 1.1017 8.5217 1.29 8.71L5.29 12.71C5.47 12.89 5.72 13 6 13C6.28 13 6.53 12.89 6.71 12.71L14.71 4.71C14.8496 4.56957 14.9444 4.39097 14.9827 4.19672C15.0209 4.00246 15.0008 3.80123 14.9249 3.61838C14.849 3.43554 14.7206 3.27924 14.556 3.1692C14.3915 3.05916 14.198 3.00029 14 3Z" fill="#868686"/>
</g>
</svg>
