<svg width="16" height="16" viewBox="0 0 16 16" fill="none" xmlns="http://www.w3.org/2000/svg">
<g id="Widget">
<path id="Vector" fill-rule="evenodd" clip-rule="evenodd" d="M13 11H15V5H13V11ZM3 5H1V11H3V5ZM14 4C15.1 4 16 3.1 16 2C16 0.9 15.1 0 14 0C12.9 0 12 0.9 12 2C12 3.1 12.9 4 14 4ZM2 12C0.9 12 0 12.9 0 14C0 15.1 0.9 16 2 16C3.1 16 4 15.1 4 14C4 12.9 3.1 12 2 12ZM14 12C12.9 12 12 12.9 12 14C12 15.1 12.9 16 14 16C15.1 16 16 15.1 16 14C16 12.9 15.1 12 14 12ZM5 3H11V1H5V3ZM2 0C0.9 0 0 0.9 0 2C0 3.1 0.9 4 2 4C3.1 4 4 3.1 4 2C4 0.9 3.1 0 2 0ZM5 15H11V13H5V15Z" fill="#868686"/>
</g>
</svg>
