<svg width="50" height="50" viewBox="0 0 50 50" fill="none" xmlns="http://www.w3.org/2000/svg">
<g id="Icono_Vega">
<path id="Vector" d="M25 50C38.8071 50 50 38.8071 50 25C50 11.1929 38.8071 0 25 0C11.1929 0 0 11.1929 0 25C0 38.8071 11.1929 50 25 50Z" fill="#009FE3"/>
<g id="V">
<path id="Vector_2" d="M35.8762 15.8326L25.2844 34.1785C25.1587 34.3968 24.8434 34.3968 24.7156 34.1785L16.8423 20.542C16.7166 20.3237 16.8732 20.0503 17.1267 20.0503H21.049C21.7523 20.0503 22.4027 20.4251 22.7533 21.0336L24.7156 24.4312C24.8412 24.6495 25.1565 24.6495 25.2844 24.4312L30.06 16.1611C30.3135 15.7245 29.996 15.1777 29.4911 15.1777H11.5266C10.0119 15.1777 9.06383 16.8181 9.82227 18.1299L23.2957 41.4653C24.0541 42.7772 25.948 42.7772 26.7043 41.4653L40.1777 18.1299C40.9361 16.8181 39.9881 15.1777 38.4734 15.1777H37.0116C36.542 15.1777 36.1099 15.4269 35.8762 15.8348V15.8326Z" fill="white"/>
<path id="Vector_3" d="M39.1899 9.11695H34.8884C34.4188 9.11695 33.9867 9.36609 33.753 9.77177L30.9176 14.684C30.7919 14.9023 30.9485 15.1757 31.202 15.1757H35.1133C35.8232 15.1757 36.4803 14.7965 36.8352 14.1813L39.4766 9.60641C39.6022 9.38814 39.4457 9.11475 39.1921 9.11475L39.1899 9.11695Z" fill="#E6007E"/>
</g>
</g>
</svg>
